# xmcd
#
# Track frame offsets: 
#        150
#        14447
#        32705
#        54400
#        77817
#        96877
#        111522
#        132977
#        149622
#        177182
#        197432
#        214580
#        237990
#        258342
#
# Disc length: 3730 seconds
#
# Revision: 3
# Processed by: cddbd v1.5.2PL0 Copyright (c) Steve Scherf et al.
# Submitted via: ExactAudioCopyFreeDBPlugin 1.0
#
DISCID=c50e900e
DTITLE=Tank - Force of Nature
DYEAR=2001
DGENRE=R&B
TTITLE0=Throw Your Hands Up
TTITLE1=My Freak
TTITLE2=Maybe I Deserve
TTITLE3=Can't Get Down
TTITLE4=Designated Driver
TTITLE5=What What What
TTITLE6=Lady On My Block
TTITLE7=Street Life
TTITLE8=Slowly
TTITLE9=Kill 4 You
TTITLE10=Let It Go
TTITLE11=Bounce and Grind
TTITLE12=I Don't Wanna Be Lovin' You
TTITLE13=Maybe I Deserve (Remix)
EXTD=
EXTT0=
EXTT1=
EXTT2=
EXTT3=
EXTT4=
EXTT5=
EXTT6=
EXTT7=
EXTT8=
EXTT9=
EXTT10=
EXTT11=
EXTT12=
EXTT13=
PLAYORDER=
